<?xml version="1.0" encoding="utf-8"?>
<!-- Generator: Adobe Illustrator 23.0.0, SVG Export Plug-In . SVG Version: 6.00 Build 0)  -->
<svg version="1.1" xmlns="http://www.w3.org/2000/svg" xmlns:xlink="http://www.w3.org/1999/xlink" x="0px" y="0px"
	 viewBox="0 0 500 500" style="enable-background:new 0 0 500 500;" xml:space="preserve">
<style type="text/css">
	.st0{fill:#FFF9F7;}
	.st1{fill:url(#SVGID_1_);}
	.st2{fill:#C8C8C8;}
	.st3{fill:url(#SVGID_2_);}
	.st4{fill:url(#SVGID_3_);}
	.st5{fill:url(#SVGID_4_);}
	.st6{fill:url(#SVGID_5_);}
	.st7{fill:none;stroke:#FFF9F7;stroke-width:0.65;stroke-miterlimit:10;}
	.st8{fill:#FFAE2C;}
	.st9{fill:none;stroke:#FFF9F7;stroke-width:0.6738;stroke-miterlimit:10;}
	.st10{fill:#00875B;}
	.st11{fill:none;stroke:#FFF9F7;stroke-width:0.4395;stroke-miterlimit:10;}
	.st12{opacity:0.71;fill:#FF8788;}
	.st13{fill:url(#SVGID_6_);}
	.st14{fill:#959595;}
	.st15{fill:url(#SVGID_7_);}
	.st16{fill:#FFFFFF;}
	.st17{opacity:0.17;fill:#FFFFFF;}
	.st18{fill:#333333;}
	.st19{fill:url(#SVGID_8_);}
	.st20{fill:url(#SVGID_9_);}
	.st21{fill:url(#SVGID_10_);}
	.st22{fill:url(#SVGID_11_);}
	.st23{fill:url(#SVGID_12_);}
	.st24{font-family:'Montserrat-Light';}
	.st25{font-size:4.3172px;}
	.st26{fill:#453AE9;}
	.st27{font-family:'Montserrat-SemiBold';}
	.st28{font-size:7.7338px;}
	.st29{letter-spacing:1;}
	.st30{fill:url(#SVGID_13_);}
	.st31{font-family:'Montserrat-Regular';}
	.st32{font-size:3.6461px;}
	.st33{font-size:3.1556px;}
	.st34{fill:#FF8586;}
	.st35{fill:none;stroke:#453AE9;stroke-width:0.6032;stroke-miterlimit:10;}
	.st36{fill:none;}
	.st37{font-size:2.6422px;}
	.st38{fill:#FFB2B6;}
	.st39{fill:url(#SVGID_14_);}
	.st40{fill:#00AEE0;}
	.st41{fill:#452B2C;}
</style>
<g id="BACKGROUND">
	<g>
		<rect y="1" class="st0" width="499" height="500"/>
		<g>
			<linearGradient id="SVGID_1_" gradientUnits="userSpaceOnUse" x1="207.847" y1="303.6909" x2="284.5134" y2="537.0241">
				<stop  offset="0" style="stop-color:#FFADA6"/>
				<stop  offset="0.9892" style="stop-color:#FFE7DB"/>
			</linearGradient>
			<path class="st1" d="M499,360c-13.79-13.79-47-30-96.27-22.69c-15.78,2.34-30.9,9.76-46.84,9.01
				c-31.26-1.48-50.17-35.79-78.97-48.03c-25.83-10.98-56.47-2.33-79.37,13.9c-22.9,16.23-40.02,39.12-58.4,60.33
				s-39.42,41.71-66.08,50.47c-13.89,4.57-28.74,5.73-42.56,10.52S3.2,448.06-0.01,462.33L0,501h499C499,501,500.91,361.91,499,360z
				"/>
		</g>
	</g>
</g>
<g id="OBJECTS">
	<path class="st2" d="M406.32,398.45c-2.32-8.12-56.36,0.5-124.83,9.27c-68.48,8.77-123.61,18.84-123.14,22.49
		c0.47,3.65,43.84,5.56,112.32-3.21C339.14,418.23,407.33,401.99,406.32,398.45z"/>
	<path class="st2" d="M356.55,439.43c-0.7-6.67-17.38-4.56-38.51-3.59c-21.13,0.97-38.16,4.15-38.02,7.1
		c0.14,2.95,13.5,8.28,34.64,7.31C335.79,449.29,356.85,442.34,356.55,439.43z"/>
	<g>
		<linearGradient id="SVGID_2_" gradientUnits="userSpaceOnUse" x1="368.5975" y1="111.9201" x2="463.1159" y2="111.9201">
			<stop  offset="0" style="stop-color:#453AE9"/>
			<stop  offset="0.2124" style="stop-color:#453FE9"/>
			<stop  offset="0.4732" style="stop-color:#434EE8"/>
			<stop  offset="0.7581" style="stop-color:#4167E7"/>
			<stop  offset="1" style="stop-color:#3F82E6"/>
		</linearGradient>
		<path class="st3" d="M369.82,128.62c-3.27-7.27,0.27-16.85,7.48-20.26c7.21-3.41,16.86-0.05,20.4,7.09
			c0.2-7.64,6.23-14.73,13.73-16.17c7.51-1.44,15.72,2.93,18.73,9.95c-0.98-6.82,4.44-13.64,11.17-15.08
			c6.73-1.43,13.99,2.03,17.9,7.69s4.72,13.12,3.07,19.81c-0.7,2.85-2,5.8-4.55,7.23c-2,1.12-4.41,1.13-6.7,1.1"/>
	</g>
	<g>
		
			<linearGradient id="SVGID_3_" gradientUnits="userSpaceOnUse" x1="65.2642" y1="69.2534" x2="159.7826" y2="69.2534" gradientTransform="matrix(-1 0 0 1 206.3801 0)">
			<stop  offset="0" style="stop-color:#453AE9"/>
			<stop  offset="0.2124" style="stop-color:#453FE9"/>
			<stop  offset="0.4732" style="stop-color:#434EE8"/>
			<stop  offset="0.7581" style="stop-color:#4167E7"/>
			<stop  offset="1" style="stop-color:#3F82E6"/>
		</linearGradient>
		<path class="st4" d="M139.89,85.96c3.27-7.27-0.27-16.85-7.48-20.26c-7.21-3.41-16.86-0.05-20.4,7.09
			c-0.2-7.64-6.23-14.73-13.73-16.17c-7.51-1.44-15.72,2.93-18.73,9.95c0.98-6.82-4.44-13.64-11.17-15.08
			c-6.73-1.43-13.99,2.03-17.9,7.69c-3.92,5.66-4.72,13.12-3.07,19.81c0.7,2.85,2,5.8,4.55,7.23c2,1.12,4.41,1.13,6.7,1.1"/>
	</g>
	<g>
		
			<linearGradient id="SVGID_4_" gradientUnits="userSpaceOnUse" x1="33.1757" y1="203.5482" x2="103.2648" y2="203.5482" gradientTransform="matrix(-1 0 0 1 124.4404 0)">
			<stop  offset="0" style="stop-color:#453AE9"/>
			<stop  offset="0.2124" style="stop-color:#453FE9"/>
			<stop  offset="0.4732" style="stop-color:#434EE8"/>
			<stop  offset="0.7581" style="stop-color:#4167E7"/>
			<stop  offset="1" style="stop-color:#3F82E6"/>
		</linearGradient>
		<path class="st5" d="M90.36,215.93c2.42-5.39-0.2-12.5-5.54-15.02c-5.35-2.53-12.5-0.04-15.13,5.26
			c-0.15-5.67-4.62-10.92-10.18-11.99c-5.57-1.07-11.66,2.17-13.89,7.38c0.73-5.05-3.29-10.12-8.28-11.18
			c-4.99-1.06-10.37,1.51-13.28,5.71c-2.9,4.2-3.5,9.73-2.27,14.69c0.52,2.11,1.48,4.3,3.38,5.36c1.48,0.83,3.27,0.84,4.97,0.82"/>
	</g>
	<g>
		<g>
			
				<linearGradient id="SVGID_5_" gradientUnits="userSpaceOnUse" x1="26.5472" y1="372.142" x2="190.2876" y2="372.142" gradientTransform="matrix(0.9713 -0.238 0.238 0.9713 -80.5354 36.8839)">
				<stop  offset="0" style="stop-color:#453AE9"/>
				<stop  offset="0.2124" style="stop-color:#453FE9"/>
				<stop  offset="0.4732" style="stop-color:#434EE8"/>
				<stop  offset="0.7581" style="stop-color:#4167E7"/>
				<stop  offset="1" style="stop-color:#3F82E6"/>
			</linearGradient>
			<path class="st6" d="M184.64,402.49c0.56,7.15-8.1,12.15-15.14,10.76c-7.03-1.38-12.46-6.82-17.45-11.97
				c-4.99-5.15-10.49-10.54-17.55-11.78c-11.63-2.03-22.53,7.9-34.3,7.04c-11.67-0.85-19.71-11.62-26.51-21.14
				c-6.8-9.53-16.04-19.78-27.7-18.81c-4.26,0.35-8.31,2.24-12.59,2.37c-4.27,0.13-9.24-2.58-9.2-6.85
				c0.05-4.19,4.57-6.67,8.44-8.26c11.38-4.66,22.76-9.32,34.14-13.99c12.69-5.2,27.17-10.41,39.67-4.75
				c10.91,4.93,17.49,17.13,28.8,21.04c14.86,5.14,32.1-5.95,46.54,0.26c10.88,4.68,15.87,18.01,14.58,29.78
				c-1.28,11.77-7.43,22.38-13.45,32.58"/>
		</g>
		<path class="st7" d="M25.55,353.35c16.23-8.97,43.67-7.85,60.93-1.07c10.81,4.25,20.59,11.52,32.06,13.37
			c9.94,1.6,20.05-1.06,30.11-0.87c16.32,0.31,33.36,11.99,42.98,25.19"/>
		<path class="st7" d="M122.62,365.88c0,0-7.87-36.03-23.94-42.8"/>
		<path class="st7" d="M62.74,347.31c0,0-1.72,8.8-16.73,9.29"/>
		<path class="st7" d="M165.82,369.36c0,0,1.99-17.14-11.35-22.05"/>
		<path class="st7" d="M179.68,377.53c0,0-10.54,17.41-31.98,19.16"/>
		<path class="st7" d="M86.79,322.9c0,0,13.36,8.99,20.52,39.83"/>
		<path class="st7" d="M118.54,365.65c0,0-16.04,21.12-34.68,21.62"/>
		<path class="st7" d="M63.41,363.4c0,0,19.77-0.95,25.49-9.55"/>
		<path class="st7" d="M38.99,341.15c0,0,3.75-1.98,9.88,5.3"/>
		<path class="st7" d="M60.49,332.58c0,0,6.32,3.31,9.37,14.84"/>
		<path class="st7" d="M134.51,389.51c0,0,29.02-2.05,26.55-22.4"/>
		<path class="st7" d="M135.28,346.16c0,0,8.54,7.63,3.86,17.88"/>
		<path class="st7" d="M178.65,345.64c0,0,9.9,18.73,5.45,34.22"/>
	</g>
	<g>
		<g>
			<path class="st8" d="M332.5,346.9c-6.81-2.98-7.14-13.34-2.44-19.1c4.7-5.75,12.33-8.05,19.47-10.09
				c7.15-2.04,14.76-4.43,19.35-10.28c7.55-9.63,3.8-24.46,10.34-34.8c6.48-10.25,20.26-12.33,32.29-13.89
				c12.03-1.55,25.92-4.98,30.74-16.11c1.76-4.07,2.02-8.69,3.99-12.66c1.98-3.97,6.88-7.19,10.76-5.05
				c3.8,2.09,3.86,7.44,3.42,11.76c-1.3,12.68-2.61,25.36-3.91,38.04c-1.45,14.15-3.78,29.93-15.06,38.58
				c-9.84,7.56-24.21,7.61-33.32,16.04c-11.96,11.07-10.26,32.25-23,42.41c-9.6,7.65-24.22,5.69-34.35-1.24
				c-10.13-6.93-16.81-17.74-23.2-28.22"/>
		</g>
		<path class="st9" d="M455.23,225.53c0.26,19.22-14.18,43.76-28.82,56.21c-9.18,7.8-20.6,13.18-27.9,22.76
			c-6.32,8.3-8.84,18.84-13.93,27.95c-8.27,14.77-27.28,24.63-44.04,26.96"/>
		<path class="st9" d="M396.3,308.12c0,0,36.78,10.42,50.82-0.94"/>
		<path class="st9" d="M442.57,262.47c0,0-7.2-5.88-0.31-19.84"/>
		<path class="st9" d="M371.99,345.89c0,0,14.69,10.21,25.7,0.41"/>
		<path class="st9" d="M357.75,354.57c0,0-10.76-18.14-1.87-38.6"/>
		<path class="st9" d="M453.11,296.39c0,0-14.75,7.81-46.44-0.72"/>
		<path class="st9" d="M398.51,304.5c0,0-11.46-24.99-2.8-42.27"/>
		<path class="st9" d="M427.52,255.21c0,0-8.8,18.53-3.74,27.97"/>
		<path class="st9" d="M459.8,243.78c0,0-0.02,4.39-9.67,6.44"/>
		<path class="st9" d="M457.12,267.61c0,0-6.12,4.15-18.15,1.3"/>
		<path class="st9" d="M368.89,307.43c0,0-12.32,27.53,7.49,35.23"/>
		<path class="st9" d="M408.13,329.33c0,0-11.15,4.07-18.23-5.21"/>
		<path class="st9" d="M387.4,369.22c0,0-21.96-0.11-33.95-11.75"/>
	</g>
	<g>
		<g>
			<path class="st10" d="M165.35,369.23c-2.06,4.51-8.57,4.39-12.05,1.01c-3.47-3.37-4.7-8.61-5.77-13.51
				c-1.08-4.9-2.36-10.14-5.9-13.44c-5.82-5.43-15.23-3.38-21.53-8.15c-6.25-4.73-7.16-14.12-7.79-22.31s-2.39-17.71-9.23-21.34
				c-2.5-1.33-5.39-1.65-7.83-3.12c-2.43-1.47-4.31-4.89-2.86-7.45c1.42-2.5,4.77-2.37,7.47-1.92c7.91,1.3,15.83,2.61,23.74,3.91
				c8.83,1.45,18.66,3.55,23.77,11.48c4.46,6.91,4.08,16.64,9.11,23.09c6.6,8.46,19.93,8.01,25.94,16.97
				c4.53,6.75,2.88,16.58-1.75,23.21c-4.63,6.63-11.6,10.79-18.36,14.76"/>
		</g>
		<path class="st11" d="M92.73,282.13c12.06,0.46,27.04,11.05,34.43,21.38c4.63,6.47,7.68,14.38,13.48,19.64
			c5.02,4.56,11.57,6.61,17.13,10.36c9.03,6.09,14.67,19.28,15.66,30.7"/>
		<path class="st11" d="M111.74,309.68c0,0,10.86,5.83,20.36,1.94"/>
		<path class="st11" d="M155.74,332.97c0,0-28.64,5.27-38.96-1.49"/>
		<path class="st11" d="M115.54,291.93c0,0-3.89,4.68-12.45-0.45"/>
		<path class="st11" d="M165.85,342.47c0,0,6.82-9.61,0.99-17.38"/>
		<path class="st11" d="M170.89,352.4c0,0-11.68,6.68-24.26-0.02"/>
		<path class="st11" d="M137.11,285.92c0,0,4.48,10.24-1.77,31.41"/>
		<path class="st11" d="M104.31,279.64c0,0,2.75,0.16,3.76,6.76"/>
		<path class="st11" d="M119.18,282.25c0,0,2.43,4.28,0.3,12.33"/>
		<path class="st11" d="M141.64,343.29c0,0,16.91,9.25,22.3-3.9"/>
		<path class="st11" d="M156.49,317.45c0,0,2.24,7.68-3.79,12.17"/>
		<path class="st11" d="M180.91,332.81c0,0-0.69,14.86-8.33,22.59"/>
	</g>
	<g>
		<g>
			<path class="st10" d="M335.13,305.71c-4.94-0.37-7.09-6.52-5.13-10.95c1.96-4.43,6.45-7.39,10.67-10.1
				c4.23-2.71,8.69-5.73,10.56-10.19c3.07-7.35-2.11-15.46,0.18-23.02c2.27-7.5,10.76-11.61,18.23-15.05
				c7.47-3.44,15.78-8.38,16.82-16.06c0.38-2.81-0.32-5.63,0.21-8.42c0.53-2.79,3.09-5.74,5.99-5.27c2.84,0.46,3.88,3.66,4.4,6.34
				c1.52,7.88,3.05,15.75,4.57,23.63c1.7,8.79,3.14,18.73-2.52,26.27c-4.94,6.58-14.19,9.6-18.49,16.55
				c-5.65,9.13-0.6,21.47-6.92,30.22c-4.76,6.59-14.55,8.46-22.38,6.41c-7.82-2.05-14.15-7.14-20.22-12.1"/>
		</g>
		<path class="st11" d="M391.62,207.38c3.75,11.47-0.98,29.19-8.1,39.71c-4.46,6.59-10.82,12.19-13.74,19.46
			c-2.53,6.29-2.18,13.14-3.77,19.66c-2.58,10.58-12.99,20.45-23.36,25.34"/>
		<path class="st11" d="M372.37,234.77c0,0-1.7,12.21,5.24,19.76"/>
		<path class="st11" d="M365.8,284.12c0,0-14.88-25.03-12.12-37.06"/>
		<path class="st11" d="M390.34,232.17c0,0-5.74-2.03-3.9-11.83"/>
		<path class="st11" d="M360.4,296.89c0,0,11.37,3.06,16.64-5.11"/>
		<path class="st11" d="M352.83,305.06c0,0-10.32-8.64-8.4-22.76"/>
		<path class="st11" d="M403.46,250.32c0,0-8.05,7.76-30.07,9.24"/>
		<path class="st11" d="M397.97,217.38c0,0,0.8,2.64-5.04,5.87"/>
		<path class="st11" d="M400.69,232.23c0,0-3.17,3.77-11.46,4.56"/>
		<path class="st11" d="M351.23,274.47c0,0-2.81,19.07,11.39,19.56"/>
		<path class="st11" d="M380.61,279.43c0,0-6.43,4.76-12.72,0.67"/>
		<path class="st11" d="M374.68,307.67c0,0-14.18,4.5-24.07,0.02"/>
	</g>
	<ellipse class="st12" cx="332" cy="92.33" rx="62.33" ry="62"/>
	<g>
		<linearGradient id="SVGID_6_" gradientUnits="userSpaceOnUse" x1="228.9684" y1="57.2444" x2="290.435" y2="57.2444">
			<stop  offset="0" style="stop-color:#453AE9"/>
			<stop  offset="0.2124" style="stop-color:#453FE9"/>
			<stop  offset="0.4732" style="stop-color:#434EE8"/>
			<stop  offset="0.7581" style="stop-color:#4167E7"/>
			<stop  offset="1" style="stop-color:#3F82E6"/>
		</linearGradient>
		<path class="st13" d="M229.77,68.11c-2.13-4.73,0.17-10.96,4.86-13.18c4.69-2.22,10.96-0.03,13.26,4.61
			c0.13-4.97,4.05-9.58,8.93-10.52c4.88-0.93,10.23,1.9,12.18,6.47c-0.64-4.43,2.88-8.87,7.26-9.81s9.1,1.32,11.64,5
			c2.55,3.68,3.07,8.53,1.99,12.88c-0.46,1.85-1.3,3.77-2.96,4.7c-1.3,0.73-2.87,0.73-4.36,0.72"/>
	</g>
	<g>
		<g>
			<path class="st14" d="M166.51,420.07L129.3,143.08c-0.66-4.93,2.8-9.46,7.72-10.12l193.08-25.94c4.93-0.66,9.46,2.8,10.12,7.72
				l37.21,276.99c0.66,4.93-2.8,9.46-7.72,10.12l-193.08,25.94C171.7,428.45,167.17,425,166.51,420.07z"/>
			
				<linearGradient id="SVGID_7_" gradientUnits="userSpaceOnUse" x1="75.2204" y1="261.6068" x2="423.5543" y2="261.6068" gradientTransform="matrix(-3.000000e-03 0.9013 -0.9983 0.0225 515.2753 36.7479)">
				<stop  offset="0.0108" style="stop-color:#4D4D4D"/>
				<stop  offset="1" style="stop-color:#333333"/>
			</linearGradient>
			<path class="st15" d="M168.16,418.29l-36.79-273.93c-0.66-4.93,2.8-9.46,7.72-10.12l189.36-25.44c4.93-0.66,9.46,2.8,10.12,7.72
				l36.79,273.93c0.66,4.93-2.8,9.46-7.72,10.12l-189.36,25.44C173.35,426.67,168.82,423.21,168.16,418.29z"/>
			
				<rect x="127.12" y="184.91" transform="matrix(0.1331 0.9911 -0.9911 0.1331 484.6627 -19.3015)" class="st16" width="252.49" height="165"/>
			<polygon class="st17" points="262.73,416.84 204.56,424.1 244.21,118.57 302.38,111.31 			"/>
			<path class="st18" d="M231.39,135.68c-1.8,0.24-3.43-0.87-3.65-2.49c-0.22-1.62,1.06-3.12,2.86-3.36
				c1.8-0.24,3.43,0.87,3.65,2.49C234.47,133.93,233.19,135.43,231.39,135.68z"/>
		</g>
		<g>
			<g>
				<linearGradient id="SVGID_8_" gradientUnits="userSpaceOnUse" x1="198.0278" y1="217.6765" x2="298.6023" y2="217.6765">
					<stop  offset="0" style="stop-color:#FFADA6"/>
					<stop  offset="0.2387" style="stop-color:#FFB2AB"/>
					<stop  offset="0.5318" style="stop-color:#FFC1B9"/>
					<stop  offset="0.8521" style="stop-color:#FFDACF"/>
					<stop  offset="0.9892" style="stop-color:#FFE7DB"/>
				</linearGradient>
				<path class="st19" d="M294.22,216.69l-90.33,12.58c-2.78,0.39-5.35-1.55-5.74-4.34l-0.07-0.52c-0.39-2.78,1.55-5.35,4.34-5.74
					l90.33-12.58c2.78-0.39,5.35,1.55,5.74,4.34l0.07,0.52C298.94,213.73,297,216.3,294.22,216.69z"/>
				<linearGradient id="SVGID_9_" gradientUnits="userSpaceOnUse" x1="200.6682" y1="236.6416" x2="301.2428" y2="236.6416">
					<stop  offset="0" style="stop-color:#FFADA6"/>
					<stop  offset="0.2387" style="stop-color:#FFB2AB"/>
					<stop  offset="0.5318" style="stop-color:#FFC1B9"/>
					<stop  offset="0.8521" style="stop-color:#FFDACF"/>
					<stop  offset="0.9892" style="stop-color:#FFE7DB"/>
				</linearGradient>
				<path class="st20" d="M296.86,235.65l-90.33,12.58c-2.78,0.39-5.35-1.55-5.74-4.34l-0.07-0.52c-0.39-2.78,1.55-5.35,4.34-5.74
					l90.33-12.58c2.78-0.39,5.35,1.55,5.74,4.34l0.07,0.52C301.58,232.7,299.64,235.27,296.86,235.65z"/>
				<linearGradient id="SVGID_10_" gradientUnits="userSpaceOnUse" x1="203.3087" y1="255.6067" x2="303.8833" y2="255.6067">
					<stop  offset="0" style="stop-color:#FFADA6"/>
					<stop  offset="0.2387" style="stop-color:#FFB2AB"/>
					<stop  offset="0.5318" style="stop-color:#FFC1B9"/>
					<stop  offset="0.8521" style="stop-color:#FFDACF"/>
					<stop  offset="0.9892" style="stop-color:#FFE7DB"/>
				</linearGradient>
				<path class="st21" d="M299.5,254.62l-90.33,12.58c-2.78,0.39-5.35-1.55-5.74-4.34l-0.07-0.52c-0.39-2.78,1.55-5.35,4.34-5.74
					l90.33-12.58c2.78-0.39,5.35,1.55,5.74,4.34l0.07,0.52C304.22,251.66,302.28,254.23,299.5,254.62z"/>
				<linearGradient id="SVGID_11_" gradientUnits="userSpaceOnUse" x1="205.9492" y1="274.5718" x2="306.5237" y2="274.5718">
					<stop  offset="0" style="stop-color:#FFADA6"/>
					<stop  offset="0.2387" style="stop-color:#FFB2AB"/>
					<stop  offset="0.5318" style="stop-color:#FFC1B9"/>
					<stop  offset="0.8521" style="stop-color:#FFDACF"/>
					<stop  offset="0.9892" style="stop-color:#FFE7DB"/>
				</linearGradient>
				<path class="st22" d="M302.14,273.58l-90.33,12.58c-2.78,0.39-5.35-1.55-5.74-4.34L206,281.3c-0.39-2.78,1.55-5.35,4.34-5.74
					l90.33-12.58c2.78-0.39,5.35,1.55,5.74,4.34l0.07,0.52C306.86,270.63,304.92,273.2,302.14,273.58z"/>
				<linearGradient id="SVGID_12_" gradientUnits="userSpaceOnUse" x1="208.512" y1="292.9791" x2="309.0866" y2="292.9791">
					<stop  offset="0" style="stop-color:#FFADA6"/>
					<stop  offset="0.2387" style="stop-color:#FFB2AB"/>
					<stop  offset="0.5318" style="stop-color:#FFC1B9"/>
					<stop  offset="0.8521" style="stop-color:#FFDACF"/>
					<stop  offset="0.9892" style="stop-color:#FFE7DB"/>
				</linearGradient>
				<path class="st23" d="M304.7,291.99l-90.33,12.58c-2.78,0.39-5.35-1.55-5.74-4.34l-0.07-0.52c-0.39-2.78,1.55-5.35,4.34-5.74
					l90.33-12.58c2.78-0.39,5.35,1.55,5.74,4.34l0.07,0.52C309.42,289.03,307.48,291.6,304.7,291.99z"/>
			</g>
			<g>
				<text transform="matrix(0.9905 -0.1379 0.1379 0.9905 202.6163 225.6261)" class="st16 st24 st25">Name</text>
				<text transform="matrix(0.9905 -0.1379 0.1379 0.9905 205.2244 244.3586)" class="st16 st24 st25">Email adress</text>
				<text transform="matrix(0.9905 -0.1379 0.1379 0.9905 207.8328 263.093)" class="st16 st24 st25">Country</text>
				<text transform="matrix(0.9905 -0.1379 0.1379 0.9905 210.4976 282.2326)" class="st16 st24 st25">Phone</text>
				<text transform="matrix(0.9905 -0.1379 0.1379 0.9905 213.049 300.5579)" class="st16 st24 st25">Password</text>
			</g>
		</g>
		<text transform="matrix(0.9907 -0.1361 0.1361 0.9907 189.2682 182.4294)"><tspan x="0" y="0" class="st26 st27 st28 st29">ONLINE REGISTRATION</tspan><tspan x="26.79" y="16.76" class="st26 st24 st28 st29">CONCEPT</tspan></text>
		<linearGradient id="SVGID_13_" gradientUnits="userSpaceOnUse" x1="251.022" y1="336.5018" x2="270.8032" y2="354.3991">
			<stop  offset="0" style="stop-color:#453AE9"/>
			<stop  offset="0.2124" style="stop-color:#453FE9"/>
			<stop  offset="0.4732" style="stop-color:#434EE8"/>
			<stop  offset="0.7581" style="stop-color:#4167E7"/>
			<stop  offset="1" style="stop-color:#3F82E6"/>
		</linearGradient>
		<polygon class="st30" points="295.96,350.25 233.89,359.13 232.05,346.25 294.12,337.36 		"/>
		<text transform="matrix(0.9899 -0.1417 0.1417 0.9899 242.5659 352.8401)" class="st16 st31 st32">CREATE ACCOUNT</text>
		<text transform="matrix(0.9899 -0.1417 0.1417 0.9899 237.5401 371.242)"><tspan x="0" y="0" class="st24 st33">Already have an account? </tspan><tspan x="47.01" y="0" class="st34 st24 st33">Sing in</tspan></text>
		
			<rect x="202.31" y="328.06" transform="matrix(0.9899 -0.1417 0.1417 0.9899 -44.6695 32.2352)" class="st35" width="3.3" height="3.3"/>
		
			<rect x="213.21" y="319.27" transform="matrix(0.9899 -0.1417 0.1417 0.9899 -44.1919 41.4912)" class="st36" width="111.96" height="23.45"/>
		<text transform="matrix(0.9899 -0.1417 0.1417 0.9899 212.4217 329.2903)"><tspan x="0" y="0" class="st24 st37">Lorem ipsum dolor sit amet, consectetuer adipiscing elit, sed diam </tspan><tspan x="0" y="3.17" class="st24 st37">nonummy nibh euismod tincidunt ut laoreet dolore magna aliquam erat </tspan></text>
	</g>
	<g>
		<path class="st38" d="M272.61,277.68c0,0-5.85-10.92-10.92-12.87c0,0-1.95-3.7,3.32-1.75c0,0-1.11-0.63-1.75-2.32
			c-0.12-0.3,0.14-0.62,0.46-0.6c2.36,0.14,10.43,1.62,13.58,15.2l-4.48,3.32"/>
		<g>
			
				<rect x="338.63" y="436.44" transform="matrix(-1 -1.224647e-16 1.224647e-16 -1 683.0742 876.0262)" class="st16" width="5.82" height="3.14"/>
			
				<rect x="302.05" y="436.44" transform="matrix(-1 -1.224647e-16 1.224647e-16 -1 609.9196 876.0262)" class="st16" width="5.82" height="3.14"/>
			<path class="st16" d="M344.88,438.75v4.34H331.1C331.1,443.09,328.81,435.9,344.88,438.75z"/>
			<path class="st16" d="M308.22,438.75v4.34h-13.77C294.45,443.09,292.15,435.9,308.22,438.75z"/>
			<linearGradient id="SVGID_14_" gradientUnits="userSpaceOnUse" x1="325.1414" y1="352.4211" x2="321.6414" y2="434.9211">
				<stop  offset="0" style="stop-color:#453AE9"/>
				<stop  offset="0.2124" style="stop-color:#453FE9"/>
				<stop  offset="0.4732" style="stop-color:#434EE8"/>
				<stop  offset="0.7581" style="stop-color:#4167E7"/>
				<stop  offset="1" style="stop-color:#3F82E6"/>
			</linearGradient>
			<path class="st39" d="M341.7,340.92l-1.83,57.07c-0.05,1.41,0.04,2.82,0.26,4.21l5.36,34.37h-10.42l-7.27-35.89
				c-0.21-1.01-0.34-2.04-0.41-3.07l-2.14-34.07c-0.03-0.47-0.68-0.57-0.85-0.13l-11.14,29.36c-0.3,0.78-0.49,1.61-0.56,2.44
				l-3.68,41.36h-9l-0.46-44.94c-0.01-0.66,0.06-1.31,0.19-1.96l10.22-49.22L341.7,340.92z"/>
			<path class="st40" d="M310.93,305.05l-20.3-2.54c-2.07-0.04-4.02-0.98-5.35-2.57l-15.95-21.61l9.51-6.67l12.12,16.84
				c1.29,1.79,3.32,2.89,5.52,2.99l43.52-2.82l5,62.83l-38.56-4.58L310.93,305.05z"/>
			<path class="st40" d="M340.87,295.7l16.56,23.49c2.1,2.98,1.39,7.1-1.58,9.21l-16.16,11.45l-6.39-9.94l12.58-6.85
				c0.34-0.19,0.42-0.64,0.15-0.93l-10.37-11.27l0.95-16.57l1.89-1.89L340.87,295.7z"/>
		</g>
		<path class="st38" d="M315.5,270.5c0,0-2.17,2-3.67,4.5l1.17,1l-1.67,4.5l7.83,2l5.5-13.5L315.5,270.5z"/>
		<g>
			<path class="st41" d="M324.61,261.94c-2.96-0.95-6.26,0.49-8.31,3.63c-2.05,3.15-2.78,7.88-1.84,11.93
				c-1.95-0.62-4.12,0.36-5.44,2.47c-1.32,2.11-1.74,5.25-1.05,7.89c-1.69,0.44-3.46,0.93-4.82,2.41c-1.36,1.48-2.15,4.29-1.29,6.39
				c0.96,2.35,3.28,2.57,5.22,2.51c12.4-0.41,24.79-0.81,37.19-1.22c0.97-0.03,1.98-0.07,2.85-0.67c1.67-1.13,2.4-4.37,1.49-6.64
				c-0.9-2.27-3.25-3.1-4.81-1.71c2.01-1.76,2.79-5.83,1.66-8.77c-1.12-2.93-3.97-4.28-6.13-2.91c2.07-3.42,1.66-8.93-0.39-12.38
				c-2.05-3.45-5.35-5.03-8.55-5.19c-3.2-0.16-6.35,0.93-9.46,2.01c-0.02,1.47-0.03,2.94-0.05,4.41"/>
		</g>
	</g>
	<path class="st16" d="M299.75,166.38c-0.99-5.88-5.19-6.87-10.34-5.8c-6.83,1.41-13.75,2.3-20.7,2.72
		c-1.37-0.5-3.09-0.44-4.46,0.21c-4.4,0.14-8.81,0.1-13.21-0.14c-2.36-0.13-7.05,0.33-8.86-1.24c-1.17-1.01-1.78-3.5-2.38-4.86
		c-1.6-3.58-3.84-6.52-7.84-7.45c-3.81-0.88-7,2.36-6.15,6.15c0.67,2.99,1.34,5.98,2.01,8.97c-0.38-0.5-0.73-1.01-1.12-1.51
		c-0.38-0.49-0.94-0.84-1.57-1.08c-2.33-1.61-5.95-0.7-7.33,1.86c-4.03-1.24-8.1,0.56-10.68,3.69c-1.46-0.27-3.03-0.07-4.61,0.79
		c-2.2,1.2-3.2,3.07-3.44,5.14c-1.08-0.02-2.19-0.01-3.29,0.04c-2.34-1.03-5.12-1.19-7.64-0.26c-2.94,1.09-3.8,3.98-3.21,6.37
		c-1.34,4.59,1.86,9.96,6.75,10.57c4.28,0.53,8-2.58,9.09-6.5c1.49-0.03,2.99-0.05,4.48-0.06c0.27,0,0.52-0.03,0.77-0.07
		c0.74,1.16,1.71,2.09,2.96,2.64c0.09,0.07,0.16,0.15,0.26,0.23c0.35,0.28,2.13,1.16,4.13,2.13c-0.05,0.48-0.03,0.96,0.02,1.43
		c-3.07,5.88,2.27,11.27,8.68,11.52c1.46,0.06,2.95,0.06,4.45,0.05c0.36,0.68,0.75,1.35,1.15,2.01c1.97,3.2,7.87,3.27,9.01-0.67
		c3.55,1.81,7.84,2.34,11.95,1.23c7.56-2.05,14.55-8.58,17.62-16.12c2.27-0.43,4.58-0.56,6.92-0.32c1.22,0.22,2.44,0.45,3.66,0.67
		c6.24,1.15,8.96-7.91,2.66-9.64c-1.78-0.49-3.57-0.81-5.35-0.99c-2.4-0.44-4.81-0.89-7.21-1.33c0.83-0.64,1.59-1.36,2.24-2.17
		c8.02,3.68,18.48,6.94,25.72,2.43C298.4,174.86,300.44,170.46,299.75,166.38z M255.31,181.45c-3.74,1.65-6.89,3.96-10.34,6.06
		c-1.33-2.55-3.66-4.65-6.35-5.78c0.29-0.54,0.54-1.1,0.74-1.69c0.49,0.02,1.02-0.03,1.58-0.18c5.63-1.48,11.35,0.73,17.07,0.32
		c-0.01,0.07-0.03,0.14-0.04,0.22C257.07,180.71,256.18,181.07,255.31,181.45z"/>
</g>
<g id="DESIGNED_BY_FREEPIK">
</g>
</svg>
